<?xml version="1.0" standalone="no"?> <!DOCTYPE svg PUBLIC "-//W3C//DTD SVG 1.0//EN" "http://www.w3.org/TR/2001/REC-SVG-20010904/DTD/svg10.dtd" > <svg xmlns="http://www.w3.org/2000/svg" width="100%" height="100%">
<defs >
<font horiz-adv-x="1401" ><font-face
    font-family="Quivira"
    units-per-em="2048"
    panose-1="2 2 6 3 5 4 5 2 3 3"
    ascent="1900"
    descent="-510"
    alphabetic="0" />
<missing-glyph horiz-adv-x="1500" d="M555 205T533 195T492 161T467 110Q463 96 463 83Q463 71 467 60Q473 36 490 26T529 15Q549 15 571 25T612 59T637 110Q641 124 641 137Q641 149 638 161Q631 184 614 194T576 205Q555 205 533 195ZM649 513T687 579T904
801Q1013 896 1061 966T1126 1105Q1136 1144 1136 1180Q1136 1241 1106 1292Q1048 1395 867 1395Q721 1395 616 1319T485 1141Q477 1111 477 1087Q477 1060 488 1042Q508 1009 533 1009Q550 1009 571 1026T599 1074Q601 1081 601 1089Q601 1112 590 1149Q580 1180
580 1207Q580 1222 583 1236Q595 1285 660 1329T820 1373Q926 1373 991 1297Q1033 1247 1033 1172Q1033 1133 1022 1088Q1007 1028 962 971T832 807Q726 670 684 594T610 415H619Q649 513 687 579ZM418 50Q414 65 414 82Q414 96 417 110Q425 141 448 170T508 217T584
235Q621 235 649 218T687 171Q691 155 691 140Q691 125 687 110Q680 79 657 50H1300V1350H1118Q1139 1330 1154 1304Q1186 1249 1186 1183Q1186 1146 1176 1105Q1158 1035 1108 962T945 789Q771 637 735 574T660 385H551Q592 519 635 597T786 813Q871 919 914 975T972
1088Q983 1133 983 1170Q983 1236 948 1278Q893 1343 813 1343Q741 1343 692 1310T633 1236Q630 1224 630 1210Q630 1185 640 1153Q651 1117 651 1093Q651 1083 649 1074Q640 1037 605 1008T526 979Q471 979 444 1024Q428 1051 428 1088Q428 1112 435 1141Q462
1251 583 1338Q592 1344 601 1350H200V50H418ZM590 0Q555 -15 521 -15Q487 -15 459 0H150V1400H706Q783 1425 874 1425Q970 1425 1036 1400H1350V0H590Z" />
<glyph unicode=" " glyph-name="space" horiz-adv-x="590" />
<glyph unicode="!" glyph-name="exclam" horiz-adv-x="420" d="M210 220Q239 220 265 206T306 166T320 110Q320 81 306 55T266 14T210 0Q181 0 155 14T114 54T100 110Q100 139 114 165T154 206T210 220ZM228 400H192L106 1188Q100 1239 100 1265Q100 1326 132
1363T211 1400Q257 1400 288 1363T320 1253Q320 1230 316 1188L228 400Z" />
<glyph unicode="&quot;" glyph-name="quotedbl" horiz-adv-x="670" d="M210 1400Q239 1400 265 1386T306 1346T320 1290Q320 1261 280 1081T210 900Q181 900 141 1080T100 1290Q100 1319 114 1345T154 1386T210 1400ZM460 1400Q489 1400 515 1386T556 1346T570
1290Q570 1261 530 1081T460 900Q431 900 391 1080T350 1290Q350 1319 364 1345T404 1386T460 1400Z" />
<glyph unicode="#" glyph-name="numbersign" horiz-adv-x="1250" d="M294 538L381 863H150V938H401L525 1400H603L479 938H851L975 1400H1053L929 938H1150V863H909L821 538H1100V463H801L677 0H600L724 463H351L227 0H150L274 463H100V538H294ZM459 863L371 538H744L831
863H459Z" />
<glyph unicode="$" glyph-name="dollar" horiz-adv-x="1001" d="M539 1401Q605 1388 676 1358Q732 1333 755 1333Q781 1333 797 1348T824 1410H861V947H824Q806 1080 760 1159T627 1274Q584 1292 539 1301V801Q720 704 797 652Q876 598 913 525T951 372Q951 210
832 100Q717 -6 539 -10V-150H464V-8Q438 -5 413 -1Q382 4 285 35T161 66Q136 66 122 51T100 -10H63V449H100Q126 305 170 234T305 126Q378 97 464 91V606Q456 611 447 616Q273 712 200 769T88 895T50 1048Q50 1202 162 1306T447 1410H464V1550H539V1401ZM539 91Q639
98 701 144Q773 197 773 296Q773 346 746 396T660 490Q633 510 539 564V91ZM464 1310H449Q345 1310 277 1258T209 1116Q209 1054 252 1004Q296 941 464 843V1310Z" />
<glyph unicode="%" glyph-name="percent" horiz-adv-x="1550" d="M375 1410Q459 1410 537 1362T658 1223T700 1025Q700 918 658 828T538 689T375 640Q291 640 213 688T92 827T50 1025Q50 1133 92 1223T212 1361T375 1410ZM175 1113T175 1025Q175 937 201 865T275
754T375 715Q427 715 475 753T549 864T575 1025Q575 1113 549 1185T475 1296T375 1335Q323 1335 275 1297T201 1186ZM1175 760Q1259 760 1337 712T1458 573T1500 375Q1500 268 1458 178T1338 39T1175 -10Q1091 -10 1013 38T892 177T850 375Q850 483 892 573T1012
711T1175 760ZM975 463T975 375Q975 287 1001 215T1075 104T1175 65Q1227 65 1275 103T1349 214T1375 375Q1375 463 1349 535T1275 646T1175 685Q1123 685 1075 647T1001 536ZM254 0L1235 1400H1326L345 0H254Z" />
<glyph unicode="&amp;" glyph-name="ampersand" horiz-adv-x="1556" d="M1020 904H1440V867Q1353 860 1312 829T1182 638T984 341Q1063 227 1138 186T1284 144Q1353 144 1401 181T1469 292L1506 265Q1469 124 1387 57T1196 -10Q1114 -10 1025 34T835 185Q711 75
617 33T409 -10Q244 -10 147 78T50 298Q50 419 137 539T464 789Q417 893 400 954T383 1077Q383 1258 509 1340Q607 1410 732 1410Q851 1410 920 1339T990 1154Q990 1048 923 978T672 813Q799 587 937 399Q1113 609 1113 753Q1113 799 1083 835Q1061 862 1020 867V904ZM638
878Q762 937 818 1002T875 1159Q875 1241 836 1289T730 1337Q643 1337 599 1281T554 1156Q554 1107 571 1052T638 878ZM793 222Q661 402 610 485T498 691Q378 622 314 539T250 359Q250 242 322 161T512 80Q575 80 628 105T793 222Z" />
<glyph unicode="&apos;" glyph-name="quotesingle" horiz-adv-x="420" d="M210 1400Q239 1400 265 1386T306 1346T320 1290Q320 1261 280 1081T210 900Q181 900 141 1080T100 1290Q100 1319 114 1345T154 1386T210 1400Z" />
<glyph unicode="(" glyph-name="parenleft" horiz-adv-x="660" d="M250 550Q250 -25 555 -430Q582 -465 610 -500Q499 -423 405 -313Q100 45 100 550Q100 1055 405 1414Q499 1523 610 1600Q582 1566 555 1530Q250 1125 250 550Z" />
<glyph unicode=")" glyph-name="parenright" horiz-adv-x="660" d="M410 1125T105 1530Q78 1566 50 1600Q161 1523 255 1414Q560 1055 560 550Q560 45 255 -313Q161 -423 50 -500Q78 -465 105 -430Q410 -25 410 550Q410 1125 105 1530Z" />
<glyph unicode="*" glyph-name="asterisk" horiz-adv-x="836" d="M383 1057Q377 1127 354 1196Q328 1271 328 1300Q328 1329 337 1355T367 1396T418 1410Q447 1410 468 1396T499 1356T508 1300Q508 1271 483 1196Q460 1127 454 1058Q508 1097 555 1150Q607 1209
633 1224Q658 1238 686 1244Q694 1245 703 1245Q720 1245 736 1238Q758 1226 773 1201Q786 1178 786 1153V1150Q785 1124 767 1103T723 1068Q697 1053 620 1038Q569 1027 523 1010Q569 993 620 983Q697 967 723 952Q748 938 766 917T786 870V867Q786 842 773 819Q758
794 736 783Q720 775 703 775Q694 775 686 777Q658 782 633 796Q607 811 555 871Q508 923 454 962Q460 894 483 825Q508 749 508 720Q508 691 499 665T469 624T418 610Q389 610 368 624T337 664T328 720Q328 749 354 825Q377 894 383 963Q328 924 282 871Q229 811
203 796Q178 782 151 777Q142 775 133 775Q116 775 101 783Q78 794 63 819Q50 842 50 867V870Q51 896 69 917T113 952Q139 967 217 983Q267 993 313 1010Q267 1027 217 1038Q139 1053 113 1068Q88 1082 70 1103T50 1150V1153Q50 1178 63 1201Q78 1226 101 1238Q116
1245 133 1245Q142 1245 151 1244Q178 1238 203 1224Q229 1209 282 1150Q328 1096 383 1057Z" />
<glyph unicode="+" glyph-name="plus" horiz-adv-x="1200" d="M563 663H100V738H563V1200H638V738H1100V663H638V200H563V663Z" />
<glyph unicode="," glyph-name="comma" horiz-adv-x="476" d="M236 217Q284 207 325 163Q376 105 376 10Q376 -93 305 -181T78 -321V-277Q181 -243 237 -172T294 -20Q294 -1 285 12Q280 18 276 20Q271 17 266 14Q239 0 210 0Q181 0 155 14T114 54T100 110Q100
139 114 165T155 206Q180 219 207 220H210Q223 220 236 217Z" />
<glyph unicode="-" glyph-name="hyphen" horiz-adv-x="700" d="M100 375V525H600V375H100Z" />
<glyph unicode="." glyph-name="fullstop" horiz-adv-x="420" d="M210 220Q239 220 265 206T306 166T320 110Q320 81 306 55T266 14T210 0Q181 0 155 14T114 54T100 110Q100 139 114 165T154 206T210 220Z" />
<glyph unicode="/" glyph-name="slash" horiz-adv-x="790" d="M100 0L610 1400H690L180 0H100Z" />
<glyph unicode="0" glyph-name="zero" horiz-adv-x="1000" d="M499 1410Q608 1410 708 1320T863 1061T917 700Q917 508 863 339T709 80T499 -10Q391 -10 291 80T136 339T82 700Q82 892 136 1061T290 1320T499 1410ZM430 1335T366 1255T267 1024T232 700Q232 528
266 377T365 145T499 65Q569 65 633 145T732 376T767 700Q767 873 733 1024T634 1255T499 1335Q430 1335 366 1255Z" />
<glyph unicode="1" glyph-name="one" horiz-adv-x="1000" d="M525 170V950H240V1025Q525 1025 600 1410H675V170Q675 120 700 80T795 40H845V0H355V40H405Q475 40 500 80T525 170Z" />
<glyph unicode="2" glyph-name="two" horiz-adv-x="1000" d="M947 261L852 0H52V57Q405 379 549 583T693 956Q693 1095 614 1177T425 1260Q325 1260 246 1192T128 1011H91Q116 1196 219 1303T478 1410Q643 1410 753 1296T864 1028Q864 925 816 822Q742 660 576
479Q327 207 265 150H619Q727 150 770 158T849 191T910 261H947Z" />
<glyph unicode="3" glyph-name="three" horiz-adv-x="1000" d="M730 375Q730 453 696 525T597 636T348 675V727Q468 727 549 777T660 897T690 1040Q690 1124 661 1183T577 1278T462 1315Q403 1315 334 1289T179 1141L140 1180Q223 1327 298 1368T462 1410Q561
1410 651 1364T791 1231T840 1040Q840 946 791 860T652 727Q643 722 634 718Q653 711 672 702Q772 653 826 563T880 375Q880 268 826 178T672 39T463 -10Q344 -10 248 53T119 212L150 230Q155 218 159 208Q194 141 278 97T463 53Q532 53 591 93T690 208T730 375Z"
/>
<glyph unicode="4" glyph-name="four" horiz-adv-x="1000" d="M797 1400V500H975V350H797V0H647V350H25V500L647 1400H797ZM647 500V1268L116 500H647Z" />
<glyph unicode="5" glyph-name="five" horiz-adv-x="1000" d="M873 1400L723 1250H331L269 862Q337 900 456 900Q564 900 664 842T819 676T873 450Q873 323 819 215T665 48T456 -10Q347 -10 252 43T112 204Q107 222 107 238Q107 294 168 304Q181 306 192 306Q232
306 247 280Q260 256 260 231Q260 223 259 215Q257 206 257 197Q257 172 270 147Q287 111 336 88T456 65Q525 65 584 113T683 252T723 450Q723 548 684 628T585 747T456 785Q316 785 230 742Q213 734 198 726L113 676L241 1400H873Z" />
<glyph unicode="6" glyph-name="six" horiz-adv-x="1000" d="M237 533Q234 498 232 450Q232 343 266 252T365 113T499 65Q569 65 633 113T732 252T767 450Q767 558 733 648T634 787T499 835Q430 835 366 787T267 649Q245 592 237 533ZM111 752T156 872T326 1136T605
1340T869 1400V1355Q800 1355 681 1290T452 1089Q360 975 310 863Q401 910 499 910Q608 910 708 852T863 686T917 450Q917 323 863 215T709 48T499 -10Q391 -10 291 48T136 214T82 450Q82 547 96 649Z" />
<glyph unicode="7" glyph-name="seven" horiz-adv-x="1000" d="M788 1250H300Q200 1250 90 1050H50L150 1400H950L440 0H333L788 1250Z" />
<glyph unicode="8" glyph-name="eight" horiz-adv-x="1000" d="M301 598T267 526T232 375Q232 287 266 215T365 104T499 65Q569 65 633 103T732 214T767 375Q767 453 733 525T634 636T499 675Q430 675 366 637ZM331 1262T302 1193T272 1040Q272 966 301 897T385
792T499 755Q559 755 613 791T697 897T727 1040Q727 1124 698 1193T614 1298T499 1335Q440 1335 386 1299ZM671 718Q690 711 709 702Q809 653 863 563T917 375Q917 268 863 178T709 39T499 -10Q391 -10 291 38T136 177T82 375Q82 473 136 563T291 702Q309 711 328
718Q319 722 311 727Q220 773 171 859T122 1040Q122 1144 171 1230T310 1363T499 1410Q598 1410 688 1364T828 1231T877 1040Q877 946 828 860T689 727Q680 722 671 718Z" />
<glyph unicode="9" glyph-name="nine" horiz-adv-x="1000" d="M762 867Q765 902 767 950Q767 1057 733 1148T634 1287T500 1335Q430 1335 366 1287T267 1148T232 950Q232 842 266 752T365 613T500 565Q569 565 633 613T733 752Q754 808 762 867ZM888 648T843 528T673
264T394 60T130 0V45Q199 45 318 110T548 311Q639 425 689 537Q598 490 500 490Q391 490 291 548T136 714T82 950Q82 1077 136 1185T290 1352T500 1410Q608 1410 708 1352T863 1186T917 950Q917 853 903 751Z" />
<glyph unicode=":" glyph-name="colon" horiz-adv-x="420" d="M210 220Q239 220 265 206T306 166T320 110Q320 81 306 55T266 14T210 0Q181 0 155 14T114 54T100 110Q100 139 114 165T154 206T210 220ZM210 900Q239 900 265 886T306 846T320 790Q320 761 306 735T266
694T210 680Q181 680 155 694T114 734T100 790Q100 819 114 845T154 886T210 900Z" />
<glyph unicode=";" glyph-name="semicolon" horiz-adv-x="476" d="M236 217Q284 207 325 163Q376 105 376 10Q376 -93 305 -181T78 -321V-277Q181 -243 237 -172T294 -20Q294 -1 285 12Q280 18 276 20Q271 17 266 14Q239 0 210 0Q181 0 155 14T114 54T100 110Q100
139 114 165T155 206Q180 219 207 220H210Q223 220 236 217ZM210 900Q239 900 265 886T306 846T320 790Q320 761 306 735T266 694T210 680Q181 680 155 694T114 734T100 790Q100 819 114 845T154 886T210 900Z" />
<glyph unicode="&lt;" glyph-name="less" horiz-adv-x="1200" d="M100 740L1100 1104V1024L209 700L1100 376V296L100 661V740Z" />
<glyph unicode="=" glyph-name="equal" horiz-adv-x="1200" d="M100 812V887H1100V812H100ZM100 512V587H1100V512H100Z" />
<glyph unicode="&gt;" glyph-name="greater" horiz-adv-x="1200" d="M1100 661L100 296V376L991 700L100 1024V1104L1100 740V661Z" />
<glyph unicode="?" glyph-name="question" horiz-adv-x="900" d="M450 220Q479 220 505 206T546 166T560 110Q560 81 546 55T506 14T450 0Q421 0 395 14T354 54T340 110Q340 139 354 165T394 206T450 220ZM465 400H406Q412 518 435 595T532 810Q590 916 620 973T650
1088Q650 1217 573 1287T402 1358Q319 1358 272 1320T224 1236Q224 1201 252 1151T281 1074Q281 1040 259 1017T206 994Q166 994 133 1033T100 1141Q100 1247 192 1328T443 1410Q639 1410 731 1298Q800 1215 800 1105Q800 1036 769 964T651 795Q513 641 492 577T465
400Z" />
<glyph unicode="@" glyph-name="at" horiz-adv-x="1939" d="M778 729T726 639T653 450Q643 398 643 348Q643 304 651 262Q667 171 721 123T845 75Q915 75 989 123T1116 262T1188 450Q1199 504 1199 555Q1199 598 1192 639Q1175 729 1120 777T995 825Q926 825 852
777ZM1443 139Q1447 142 1452 145Q1554 218 1627 382T1700 724Q1700 905 1618 1050T1385 1277T1052 1360Q821 1360 623 1233T313 875T200 387Q200 157 298 -31T581 -314T977 -410Q1240 -410 1452 -270T1781 141H1839Q1749 -133 1512 -296T972 -460Q734 -460 530
-354T213 -42T100 413Q100 687 224 915T571 1277T1046 1410Q1253 1410 1419 1320T1673 1066T1760 706Q1760 523 1679 344T1471 82Q1423 51 1391 33Q1330 0 1274 0Q1228 0 1190 25T1139 99Q1137 105 1136 113Q1097 82 1052 58Q939 0 830 0Q722 0 634 58T513 225Q493
288 493 355Q493 402 503 450Q527 567 602 675T790 842T1010 900Q1119 900 1208 842Q1212 839 1216 837L1378 900H1428L1302 267Q1294 229 1294 201Q1294 165 1308 147Q1332 116 1378 116Q1408 116 1443 139Z" />
<glyph unicode="A" glyph-name="A" horiz-adv-x="1579" d="M471 480L354 191Q349 173 349 154Q349 125 360 95Q380 40 450 40H500V0H0V40H50Q120 40 175 95Q226 146 247 193L735 1400H843L1330 195Q1352 147 1404 95Q1459 40 1529 40H1579V0H979V40H1029Q1099
40 1115 95Q1122 120 1122 145Q1122 168 1116 190L999 480H471ZM958 580L735 1133L511 580H958Z" />
<glyph unicode="B" glyph-name="B" horiz-adv-x="1350" d="M450 130Q570 100 695 100Q870 100 985 162T1100 375Q1100 525 985 587T695 650Q570 650 450 620V130ZM250 1200Q250 1250 210 1305T100 1360H50V1400H720Q970 1400 1110 1308T1250 1025Q1250 835 1095
728Q1080 718 1064 710Q1109 695 1145 673Q1300 565 1300 375Q1300 185 1160 93T770 0H50V40H100Q170 40 210 95T250 200V1200ZM695 750Q820 750 935 812T1050 1025Q1050 1175 935 1237T695 1300Q570 1300 450 1270V780Q570 750 695 750Z" />
<glyph unicode="C" glyph-name="C" horiz-adv-x="1248" d="M750 1310Q513 1310 382 1117T250 700Q250 481 381 286T750 90Q1019 90 1173 254L1198 219Q1187 207 1176 195Q982 -10 750 -10Q438 -10 244 194T50 700Q50 1000 242 1205T750 1410Q850 1410 935 1371T1050
1332Q1080 1332 1103 1358T1127 1410H1164V960H1127Q1127 1040 1074 1125T933 1260T750 1310Z" />
<glyph unicode="D" glyph-name="D" horiz-adv-x="1400" d="M50 0V40H100Q170 40 210 95T250 200V1200Q250 1250 210 1305T100 1360H50V1400H740Q1010 1400 1180 1228T1350 700Q1350 347 1195 174T740 0H50ZM450 1300V100H715Q860 100 1005 239T1150 700Q1150 1024
1005 1162T715 1300H450Z" />
<glyph unicode="E" glyph-name="E" horiz-adv-x="1350" d="M250 1200Q250 1250 210 1305T100 1360H50V1400H1200L1300 1050H1260Q1150 1300 1050 1300H450V750H850Q900 750 955 790T1010 900V950H1050V450H1010V500Q1010 570 955 610T850 650H450V100H1050Q1150
100 1260 350H1300L1200 0H50V40H100Q170 40 210 95T250 200V1200Z" />
<glyph unicode="F" glyph-name="F" horiz-adv-x="1350" d="M250 1200Q250 1250 210 1305T100 1360H50V1400H1200L1300 1050H1260Q1150 1300 1050 1300H450V750H850Q900 750 955 790T1010 900V950H1050V450H1010V500Q1010 570 955 610T850 650H450V200Q450 150
490 95T600 40H650V0H50V40H100Q170 40 210 95T250 200V1200Z" />
<glyph unicode="G" glyph-name="G" horiz-adv-x="1428" d="M750 1410Q850 1410 935 1371T1050 1332Q1080 1332 1103 1358T1127 1410H1164V960H1127Q1127 1040 1074 1125T933 1260T750 1310Q513 1310 382 1117T250 700Q250 481 381 286T750 90Q876 90 978 130V450Q978
500 938 555T828 610H778V650H1378V610H1328Q1258 610 1218 555T1178 450V130Q962 -10 750 -10Q438 -10 244 194T50 700Q50 1000 242 1205T750 1410Z" />
<glyph unicode="H" glyph-name="H" horiz-adv-x="1550" d="M450 650V200Q450 150 490 95T600 40H650V0H50V40H100Q170 40 210 95T250 200V1200Q250 1250 210 1305T100 1360H50V1400H650V1360H600Q530 1360 490 1305T450 1200V750H1100V1200Q1100 1250 1060 1305T950
1360H900V1400H1500V1360H1450Q1380 1360 1340 1305T1300 1200V200Q1300 150 1340 95T1450 40H1500V0H900V40H950Q1020 40 1060 95T1100 200V650H450Z" />
<glyph unicode="I" glyph-name="I" horiz-adv-x="700" d="M650 1400V1360H600Q530 1360 490 1305T450 1200V200Q450 150 490 95T600 40H650V0H50V40H100Q170 40 210 95T250 200V1200Q250 1250 210 1305T100 1360H50V1400H650Z" />
<glyph unicode="J" glyph-name="J" horiz-adv-x="906" d="M656 490Q656 323 632 225T538 58T359 -10Q250 -10 175 28T55 174Q50 192 50 208Q50 284 106 294Q116 295 125 295Q166 295 190 260Q217 219 217 188V185Q216 183 216 182Q216 150 257 104Q299 55 359
55Q418 55 437 109T456 220V1200Q456 1250 416 1305T306 1360H256V1400H856V1360H806Q736 1360 696 1305T656 1200V490Z" />
<glyph unicode="K" glyph-name="K" horiz-adv-x="1575" d="M967 1208Q1007 1254 1025 1305Q1029 1317 1029 1327Q1029 1360 975 1360H925V1400H1425V1360H1375Q1305 1360 1225 1305Q1177 1272 1140 1240L650 750L1200 200Q1255 150 1330 95T1475 40H1525V0H925V40H975Q1020
40 1020 62Q1020 75 1005 95Q970 143 930 187L509 609L450 550V200Q450 150 490 95T600 40H650V0H50V40H100Q170 40 210 95T250 200V1200Q250 1250 210 1305T100 1360H50V1400H650V1360H600Q530 1360 490 1305T450 1200V691L967 1208Z" />
<glyph unicode="L" glyph-name="L" horiz-adv-x="1350" d="M650 1400V1360H600Q530 1360 490 1305T450 1200V100H1050Q1150 100 1260 350H1300L1200 0H50V40H100Q170 40 210 95T250 200V1200Q250 1250 210 1305T100 1360H50V1400H650Z" />
<glyph unicode="M" glyph-name="M" horiz-adv-x="1930" d="M400 1035V200Q400 150 440 95T550 40H600V0H100V40H150Q220 40 260 95T300 200V1239Q275 1271 235 1305Q170 1360 100 1360H50V1400H450L993 236L1535 1400H1880V1360H1830Q1760 1360 1720 1305T1680
1200V200Q1680 150 1720 95T1830 40H1880V0H1280V40H1330Q1400 40 1440 95T1480 200V1043L994 0H883L400 1035Z" />
<glyph unicode="N" glyph-name="N" horiz-adv-x="1677" d="M412 200Q412 150 452 95T562 40H612V0H112V40H162Q232 40 272 95T312 200V1207Q270 1254 220 1307T100 1360H50V1400H412L1327 309V1200Q1327 1250 1287 1305T1177 1360H1127V1400H1627V1360H1577Q1507
1360 1467 1305T1427 1200V0H1325L412 1088V200Z" />
<glyph unicode="O" glyph-name="O" horiz-adv-x="1400" d="M700 1410Q993 1410 1171 1205T1350 700Q1350 399 1170 195T700 -10Q410 -10 230 194T50 700Q50 1000 228 1205T700 1410ZM700 1310Q487 1310 369 1117T250 700Q250 481 368 286T700 90Q910 90 1030 285T1150
700Q1150 923 1030 1116T700 1310Z" />
<glyph unicode="P" glyph-name="P" horiz-adv-x="1300" d="M720 1400Q970 1400 1110 1308T1250 1025Q1250 835 1125 743T720 650H450V200Q450 150 490 95T600 40H650V0H50V40H100Q170 40 210 95T250 200V1200Q250 1250 210 1305T100 1360H50V1400H720ZM450 1270V780Q570
750 695 750Q820 750 935 812T1050 1025Q1050 1175 935 1237T695 1300Q570 1300 450 1270Z" />
<glyph unicode="Q" glyph-name="Q" horiz-adv-x="1400" d="M996 236Q1014 259 1030 286Q1150 481 1150 700Q1150 923 1030 1116T700 1310Q487 1310 369 1117T250 700Q250 481 368 286T700 90Q823 90 915 157Q838 254 803 274Q758 300 707 308Q692 310 678 310Q643
310 615 297Q574 278 555 245L500 276Q535 336 596 374Q654 410 723 410H728Q800 408 860 373Q909 345 996 236ZM994 56Q864 -10 700 -10Q410 -10 230 194T50 700Q50 1000 228 1205T700 1410Q993 1410 1171 1205T1350 700Q1350 399 1170 195Q1132 151 1088 117Q1160
26 1194 7Q1239 -19 1291 -26Q1305 -27 1318 -27Q1353 -27 1383 -15Q1423 3 1443 37L1498 5Q1464 -55 1403 -92Q1343 -127 1275 -127H1269Q1197 -126 1137 -92Q1086 -61 994 56Z" />
<glyph unicode="R" glyph-name="R" horiz-adv-x="1538" d="M450 1270V780Q570 750 695 750Q820 750 935 812T1050 1025Q1050 1175 935 1237T695 1300Q570 1300 450 1270ZM733 650H450V200Q450 150 490 95T600 40H650V0H50V40H100Q170 40 210 95T250 200V1200Q250
1250 210 1305T100 1360H50V1400H720Q970 1400 1110 1308T1250 1025Q1250 835 1125 743Q1059 694 951 671L1229 189Q1258 144 1310 95Q1368 40 1438 40H1488V0H888V40H938Q1008 40 1013 95Q1014 104 1014 113Q1014 156 994 196L733 650Z" />
<glyph unicode="S" glyph-name="S" horiz-adv-x="1001" d="M861 1410V947H824Q806 1080 760 1159T627 1274T449 1310Q345 1310 277 1258T209 1116Q209 1054 252 1004Q304 930 527 807Q717 706 796 652T913 525T951 372Q951 210 832 100T524 -10Q465 -10 413 -1Q382
4 285 35T161 66Q136 66 122 51T100 -10H63V449H100Q126 305 170 234T304 126T503 90Q628 90 700 143T773 296Q773 346 746 396T660 490Q621 519 447 615T200 769T88 895T50 1048Q50 1202 162 1306T447 1410Q555 1410 676 1358Q732 1333 755 1333Q781 1333 797
1348T824 1410H861Z" />
<glyph unicode="T" glyph-name="T" horiz-adv-x="1400" d="M800 200Q800 150 840 95T950 40H1000V0H400V40H450Q520 40 560 95T600 200V1300H300Q200 1300 90 1050H50L150 1400H1250L1350 1050H1310Q1200 1300 1100 1300H800V200Z" />
<glyph unicode="U" glyph-name="U" horiz-adv-x="1600" d="M1550 1400V1360H1500Q1430 1360 1390 1305T1350 1200V490Q1350 290 1200 140T850 -10Q550 -10 400 155T250 540V1200Q250 1250 210 1305T100 1360H50V1400H650V1360H600Q530 1360 490 1305T450 1200V590Q450
370 550 230T850 90Q1000 90 1125 215T1250 540V1200Q1250 1250 1210 1305T1100 1360H1050V1400H1550Z" />
<glyph unicode="V" glyph-name="V" horiz-adv-x="1579" d="M600 1400V1360H550Q480 1360 464 1305Q457 1280 457 1255Q457 1232 463 1210L844 267L1225 1209Q1230 1227 1230 1246Q1230 1275 1219 1305Q1199 1360 1129 1360H1079V1400H1579V1360H1529Q1459 1360
1404 1305Q1353 1254 1332 1207L844 0H736L249 1205Q227 1253 175 1305Q120 1360 50 1360H0V1400H600Z" />
<glyph unicode="W" glyph-name="W" horiz-adv-x="2279" d="M1140 733L844 0H736L249 1205Q227 1253 175 1305Q120 1360 50 1360H0V1400H600V1360H550Q480 1360 464 1305Q457 1280 457 1255Q457 1232 463 1210L844 267L1086 865L949 1205Q927 1253 875 1305Q820
1360 750 1360H700V1400H1300V1360H1250Q1180 1360 1164 1305Q1157 1280 1157 1255Q1157 1232 1163 1210L1544 267L1925 1209Q1930 1227 1930 1246Q1930 1275 1919 1305Q1899 1360 1829 1360H1779V1400H2279V1360H2229Q2159 1360 2104 1305Q2053 1254 2032 1207L1544
0H1436L1140 733Z" />
<glyph unicode="X" glyph-name="X" horiz-adv-x="1502" d="M682 1400V1360H632Q562 1360 557 1305Q556 1296 556 1287Q556 1244 575 1205L787 837L1047 1209Q1072 1255 1072 1305Q1072 1360 1002 1360H952V1400H1452V1360H1402Q1332 1360 1263 1305Q1206 1260
1175 1218L1162 1200L842 742L1161 189Q1190 144 1242 95Q1300 40 1370 40H1420V0H820V40H870Q940 40 945 95Q946 104 946 113Q946 156 926 196L715 562L462 200Q430 150 430 95Q430 40 500 40H550V0H50V40H100Q170 40 235 95Q296 146 336 194L660 657L345 1205Q309
1253 257 1305Q202 1360 132 1360H82V1400H682Z" />
<glyph unicode="Y" glyph-name="Y" horiz-adv-x="1652" d="M313 1202Q279 1251 225 1305Q170 1360 100 1360H50V1400H650V1360H600Q530 1360 525 1305Q524 1298 524 1291Q524 1250 545 1212L858 729L1190 1203Q1222 1252 1222 1305Q1222 1360 1152 1360H1102V1400H1602V1360H1552Q1482
1360 1412 1305Q1359 1263 1327 1224L920 643V200Q920 150 960 95T1070 40H1120V0H520V40H570Q640 40 680 95T720 200V575L313 1202Z" />
<glyph unicode="Z" glyph-name="Z" horiz-adv-x="1326" d="M365 100H1026Q1126 100 1236 350H1276L1176 0H50L961 1300H300Q200 1300 90 1050H50L150 1400H1276L365 100Z" />
<glyph unicode="[" glyph-name="bracketleft" horiz-adv-x="550" d="M500 -500H100V1600H500V1525H200V-425H500V-500Z" />
<glyph unicode="\" glyph-name="backslash" horiz-adv-x="790" d="M610 0L100 1400H180L690 0H610Z" />
<glyph unicode="]" glyph-name="bracketright" horiz-adv-x="550" d="M50 -425H350V1525H50V1600H450V-500H50V-425Z" />
<glyph unicode="^" glyph-name="asciicircum" horiz-adv-x="790" d="M395 1290L180 700H100L355 1400H435L690 700H610L395 1290Z" />
<glyph unicode="_" glyph-name="underscore" horiz-adv-x="1000" d="M1000 -75H0V0H1000V-75Z" />
<glyph unicode="`" glyph-name="grave" horiz-adv-x="600" d="M322 1400L500 1050H450L100 1400H322Z" />
<glyph unicode="a" glyph-name="a" horiz-adv-x="841" d="M506 554V680Q506 737 472 791T379 845Q319 845 290 832T238 784Q216 750 216 720Q216 718 217 716V711Q217 681 200 650Q185 624 148 624Q138 624 126 627Q70 636 70 692Q70 708 75 726Q119 834 194 872T379
910Q487 910 557 842T642 676T656 440V257Q656 168 671 137T732 106Q765 106 775 113T802 161H841Q806 63 763 27T652 -10Q606 -10 577 15T527 89Q520 105 515 124Q386 27 354 12Q304 -10 249 -10Q162 -10 106 48T50 210Q50 270 77 313Q115 374 208 427Q298 479
506 554ZM508 177Q506 203 506 235V499Q376 448 337 427Q265 388 233 346T200 252Q200 178 241 136T333 93Q400 93 508 177Z" />
<glyph unicode="b" glyph-name="b" horiz-adv-x="1005" d="M379 739T345 649T310 450V190Q379 111 433 88T557 65Q607 65 671 113T770 252T805 450Q805 558 771 648T672 787T557 835Q488 835 434 787ZM160 1110Q160 1210 150 1245T100 1280Q60 1280 13 1262L0
1300L260 1410H310V815Q333 836 359 852Q449 910 557 910Q646 910 746 852T901 686T955 450Q955 323 901 215T747 48T557 -10Q449 -10 359 3T160 110V1110Z" />
<glyph unicode="c" glyph-name="c" horiz-adv-x="866" d="M467 65Q567 65 651 118T771 252Q775 264 780 278L811 256Q778 141 682 66T467 -10Q359 -10 259 48T104 214T50 450Q50 577 104 685T258 852T467 910Q576 910 671 857T811 696Q816 678 816 662Q816 606
756 597Q742 594 731 594Q691 594 677 620Q663 644 663 669Q663 677 665 686Q666 694 666 703Q666 728 654 754Q636 789 587 812T467 835Q398 835 334 787T235 649T200 450Q200 343 234 252T333 113T467 65Z" />
<glyph unicode="d" glyph-name="d" horiz-adv-x="1095" d="M467 835Q398 835 334 787T235 649T200 450Q200 343 234 252T333 113T467 65Q537 65 601 113T700 252T735 450Q735 558 701 648T602 787T467 835ZM735 1110Q735 1210 725 1245T675 1280Q635 1280 588
1262L575 1300L835 1410H885V290Q885 190 895 155T945 120Q985 120 1032 138L1045 100L785 -10H735V89Q708 66 677 48Q576 -10 467 -10Q359 -10 259 48T104 214T50 450Q50 577 104 685T258 852T467 910Q576 910 677 852Q708 834 735 811V1110Z" />
<glyph unicode="e" glyph-name="e" horiz-adv-x="1000" d="M220 470V450Q220 343 258 252T359 113T529 65Q638 65 730 114T869 236L898 220Q851 123 764 57T529 -10Q383 -10 275 48T108 214T50 450Q50 577 108 685T274 852T499 910Q617 910 725 852T892 686Q948
582 950 470H220ZM773 545Q763 598 742 649Q703 739 641 787T499 835Q422 835 360 787T259 649Q237 598 227 545H773Z" />
<glyph unicode="f" glyph-name="f" horiz-adv-x="650" d="M220 850V910Q220 1077 244 1175T338 1342T517 1410Q626 1410 701 1372T821 1226Q826 1208 826 1192Q826 1136 771 1127Q758 1124 748 1124Q711 1124 697 1150Q679 1181 679 1211Q679 1213 680 1216V1220Q680
1250 659 1284Q636 1319 607 1332T517 1345Q458 1345 414 1291T370 1130V850H600V775H370V170Q370 120 395 80T490 40H540V0H50V40H100Q170 40 195 80T220 170V775H50V850H220Z" />
<glyph unicode="g" glyph-name="g" horiz-adv-x="1113" d="M288 -58Q241 -109 217 -153T193 -234Q193 -282 251 -318Q351 -380 540 -380Q720 -380 805 -317T891 -181Q891 -129 840 -107Q788 -85 634 -81Q409 -75 288 -58ZM314 765T282 699T250 550Q250 479 282
412T374 310T500 275Q565 275 625 310T718 412T750 550Q750 632 718 698T626 800T500 835Q435 835 375 800ZM323 235Q298 210 288 191Q272 162 272 142Q272 125 288 109T353 86Q381 82 493 79Q699 74 760 65Q853 52 908 -4T964 -142Q964 -255 858 -354Q702 -500
451 -500Q258 -500 125 -413Q50 -363 50 -309Q50 -285 61 -261Q78 -224 131 -158Q138 -149 233 -50Q181 -19 160 5T138 61Q138 96 167 143Q192 185 276 257Q196 301 152 375Q100 459 100 550Q100 651 151 735T299 865T500 910Q604 910 701 865Q780 828 829 764Q843
772 857 781Q935 833 987 910L1113 828Q1056 745 856 722Q900 644 900 550Q900 459 849 375T701 245T500 200Q409 200 323 235Z" />
<glyph unicode="h" glyph-name="h" horiz-adv-x="1200" d="M370 170Q370 120 395 80T490 40H540V0H50V40H100Q170 40 195 80T220 170V1110Q220 1210 210 1245T160 1280Q120 1280 73 1262L60 1300L320 1410H370V754Q391 782 415 807Q513 910 631 910Q747 910 830
852T947 686T980 460V170Q980 120 1005 80T1100 40H1150V0H660V40H710Q780 40 805 80T830 170V460Q830 557 817 648T756 787T631 835Q552 835 490 782T399 633T370 440V170Z" />
<glyph unicode="i" glyph-name="i" horiz-adv-x="590" d="M370 170Q370 120 395 80T490 40H540V0H50V40H100Q170 40 195 80T220 170V610Q220 710 210 745T160 780Q120 780 73 762L60 800L320 910H370V170ZM280 1335Q309 1335 335 1321T376 1281T390 1225Q390 1196
376 1170T336 1129T280 1115Q251 1115 225 1129T184 1169T170 1225Q170 1254 184 1280T224 1321T280 1335Z" />
<glyph unicode="j" glyph-name="j" horiz-adv-x="530" d="M360 -47Q360 -282 268 -396T15 -510Q-76 -510 -120 -477T-164 -409Q-164 -374 -140 -349T-82 -324Q-56 -324 -29 -337Q-12 -344 36 -387T118 -431Q142 -431 165 -413T199 -351T210 -162V610Q210 710 200
745T150 780Q110 780 63 762L50 800L310 910H360V-47ZM270 1335Q299 1335 325 1321T366 1281T380 1225Q380 1196 366 1170T326 1129T270 1115Q241 1115 215 1129T174 1169T160 1225Q160 1254 174 1280T214 1321T270 1335Z" />
<glyph unicode="k" glyph-name="k" horiz-adv-x="1180" d="M370 345V170Q370 120 395 80T490 40H540V0H50V40H100Q170 40 195 80T220 170V1110Q220 1210 210 1245T160 1280Q120 1280 73 1262L60 1300L320 1410H370V486L592 708Q632 754 650 805Q655 819 655 829Q655
860 610 860H560V900H1040V860H990Q930 860 850 805Q802 772 765 740L544 519L863 200Q918 150 993 95T1128 40H1178V0H669V40H719Q755 40 755 60Q755 73 739 95Q704 143 664 187L438 413L370 345Z" />
<glyph unicode="l" glyph-name="l" horiz-adv-x="590" d="M370 170Q370 120 395 80T490 40H540V0H50V40H100Q170 40 195 80T220 170V1110Q220 1210 210 1245T160 1280Q120 1280 73 1262L60 1300L320 1410H370V170Z" />
<glyph unicode="m" glyph-name="m" horiz-adv-x="1810" d="M943 699Q978 758 1025 807Q1123 910 1241 910Q1357 910 1440 852T1557 686T1590 460V170Q1590 120 1615 80T1710 40H1760V0H1270V40H1320Q1390 40 1415 80T1440 170V460Q1440 557 1427 648T1366 787T1241
835Q1162 835 1100 782T1009 633T980 440V170Q980 120 1005 80T1100 40H1150V0H660V40H710Q780 40 805 80T830 170V460Q830 557 817 648T756 787T631 835Q552 835 490 782T399 633T370 440V170Q370 120 395 80T490 40H540V0H50V40H100Q170 40 195 80T220 170V610Q220
710 210 745T160 780Q120 780 73 762L60 800L320 910H370V754Q391 782 415 807Q513 910 631 910Q747 910 831 852Q909 798 943 699Z" />
<glyph unicode="n" glyph-name="n" horiz-adv-x="1200" d="M370 170Q370 120 395 80T490 40H540V0H50V40H100Q170 40 195 80T220 170V610Q220 710 210 745T160 780Q120 780 73 762L60 800L320 910H370V754Q391 782 415 807Q513 910 631 910Q747 910 830 852T947
686T980 460V170Q980 120 1005 80T1100 40H1150V0H660V40H710Q780 40 805 80T830 170V460Q830 557 817 648T756 787T631 835Q552 835 490 782T399 633T370 440V170Z" />
<glyph unicode="o" glyph-name="o" horiz-adv-x="935" d="M467 910Q576 910 676 852T831 686T885 450Q885 323 831 215T677 48T467 -10Q359 -10 259 48T104 214T50 450Q50 577 104 685T258 852T467 910ZM398 835T334 787T235 649T200 450Q200 343 234 252T333
113T467 65Q537 65 601 113T700 252T735 450Q735 558 701 648T602 787T467 835Q398 835 334 787Z" />
<glyph unicode="p" glyph-name="p" horiz-adv-x="1105" d="M439 739T405 649T370 450Q370 343 404 252T503 113T637 65Q707 65 771 113T870 252T905 450Q905 558 871 648T772 787T637 835Q568 835 504 787ZM370 89V-330Q370 -380 395 -420T490 -460H540V-500H50V-460H100Q170
-460 195 -420T220 -330V610Q220 710 210 745T160 780Q120 780 73 762L60 800L320 910H370V811Q397 834 429 852Q529 910 637 910Q746 910 846 852T1001 686T1055 450Q1055 323 1001 215T847 48T637 -10Q529 -10 429 48Q397 66 370 89Z" />
<glyph unicode="q" glyph-name="q" horiz-adv-x="1105" d="M537 835T467 835Q398 835 334 787T235 649T200 450Q200 343 234 252T333 113T467 65Q537 65 601 113T700 252T735 450Q735 558 701 648T602 787ZM708 66T677 48Q576 -10 467 -10Q359 -10 259 48T104
214T50 450Q50 577 104 685T258 852T467 910Q576 910 677 852Q708 834 735 811V910H785L1045 800L1032 762Q985 780 945 780Q905 780 895 745T885 610V-330Q885 -380 910 -420T1005 -460H1055V-500H565V-460H615Q685 -460 710 -420T735 -330V89Q708 66 677 48Z"
/>
<glyph unicode="r" glyph-name="r" horiz-adv-x="863" d="M411 674T399 633Q370 537 370 440V170Q370 120 395 80T490 40H540V0H50V40H100Q170 40 195 80T220 170V610Q220 710 210 745T160 780Q120 780 73 762L60 800L320 910H370V754Q391 782 415 807Q513 910
631 910H640Q708 910 757 896Q774 888 787 878Q813 857 813 830Q813 812 801 790Q773 742 740 742Q737 742 733 743Q696 749 674 774T614 809Q604 811 593 811Q563 811 527 793Q478 768 429 707Q411 674 399 633Z" />
<glyph unicode="s" glyph-name="s" horiz-adv-x="700" d="M584 910V621H552Q516 757 459 806T313 855Q246 855 205 821T163 745Q163 693 194 646Q224 608 295 565L435 500Q650 408 650 258Q650 132 560 61T356 -10Q276 -10 172 18Q140 27 120 27Q98 27 86 3H54V306H96Q112
176 188 111T358 45Q424 45 466 82T508 183Q508 247 467 290T286 400T103 521Q50 574 50 654Q50 769 124 839T317 910Q369 910 443 889Q492 875 508 875Q523 875 532 881T552 910H584Z" />
<glyph unicode="t" glyph-name="t" horiz-adv-x="667" d="M360 825V257Q360 168 390 137T466 106Q499 106 530 126T578 187H617Q582 89 518 40T386 -10Q340 -10 296 15T231 88T210 235V825H50V900Q210 900 310 1200H360V900H550V825H360Z" />
<glyph unicode="u" glyph-name="u" horiz-adv-x="1190" d="M830 730Q830 780 805 820T710 860H660V900H980V290Q980 190 990 155T1040 120Q1080 120 1127 138L1140 100L880 -10H830V146Q809 118 785 93Q687 -10 569 -10Q453 -10 370 48T253 214T220 440V730Q220
780 195 820T100 860H50V900H370V440Q370 343 383 252T444 113T569 65Q648 65 710 118T801 267T830 460V730Z" />
<glyph unicode="v" glyph-name="v" horiz-adv-x="1255" d="M576 900V860H526Q466 860 450 805Q442 779 442 753Q442 732 448 711L655 200L861 709Q866 727 866 746Q866 775 855 805Q835 860 775 860H725V900H1205V860H1155Q1095 860 1040 805Q989 754 968 707L682
0H574L289 704Q268 752 215 805Q160 860 100 860H50V900H576Z" />
<glyph unicode="w" glyph-name="w" horiz-adv-x="1835" d="M918 584L682 0H574L289 704Q268 752 215 805Q160 860 100 860H50V900H576V860H526Q466 860 450 805Q442 779 442 753Q442 732 448 711L655 200L861 709Q862 713 863 717Q841 759 795 805Q740 860 680
860H630V900H1156V860H1106Q1046 860 1030 805Q1022 779 1022 753Q1022 732 1028 711L1235 200L1441 709Q1446 727 1446 746Q1446 775 1435 805Q1415 860 1355 860H1305V900H1785V860H1735Q1675 860 1620 805Q1569 754 1548 707L1262 0H1154L918 584Z" />
<glyph unicode="x" glyph-name="x" horiz-adv-x="1112" d="M571 900V860H521Q471 860 466 805Q465 796 465 786Q465 745 483 707L570 556L677 709Q702 755 702 805Q702 860 652 860H602V900H1062V860H1012Q962 860 893 805T792 700L793 701L624 461L776 198L775
200Q805 150 863 95T971 40H1021V0H532V40H582Q632 40 637 95Q638 104 638 113Q638 155 619 194L537 336L434 189L442 200Q410 150 410 95Q410 40 460 40H510V0H50V40H100Q150 40 215 95Q276 146 316 193L482 431L324 706Q289 753 237 805Q182 860 132 860H82V900H571Z"
/>
<glyph unicode="y" glyph-name="y" horiz-adv-x="1255" d="M574 0L289 704Q268 752 215 805Q160 860 100 860H50V900H576V860H526Q466 860 450 805Q442 779 442 753Q442 732 448 711L655 200L861 709Q866 727 866 746Q866 775 855 805Q835 860 775 860H725V900H1205V860H1155Q1095
860 1040 805Q989 754 968 707L586 -237Q532 -370 435 -435T256 -500Q197 -500 159 -466T121 -388Q121 -346 148 -321T224 -295Q257 -295 314 -317Q354 -332 364 -332Q394 -332 429 -300T501 -179L574 0Z" />
<glyph unicode="z" glyph-name="z" horiz-adv-x="913" d="M610 800H300Q200 800 100 590H60L150 900H863L303 100H613Q713 100 813 310H853L763 0H50L610 800Z" />
<glyph unicode="{" glyph-name="braceleft" horiz-adv-x="850" d="M50 554Q149 580 225 657Q341 773 341 1010V1090Q341 1305 501 1452T850 1600Q723 1600 607 1439T491 1090V1010Q491 745 331 643Q221 572 78 550Q221 528 331 458Q491 355 491 90V10Q491 -172
607 -336T850 -500Q663 -500 502 -353T341 10V90Q341 327 225 444Q149 520 50 546V554Z" />
<glyph unicode="|" glyph-name="bar" horiz-adv-x="275" d="M175 -300H100V1400H175V-300Z" />
<glyph unicode="}" glyph-name="braceright" horiz-adv-x="850" d="M800 546Q701 520 625 444Q509 327 509 90V10Q509 -206 348 -353T0 -500Q127 -500 243 -336T359 10V90Q359 355 519 458Q629 528 772 550Q629 572 519 643Q359 745 359 1010V1090Q359 1277 243
1438T0 1600Q189 1600 349 1453T509 1090V1010Q509 773 625 657Q701 580 800 554V546Z" />
<glyph unicode="~" glyph-name="asciitilde" horiz-adv-x="1200" d="M163 568H100Q100 637 134 700T231 797T363 832Q432 832 608 757T836 682Q888 682 936 701T1010 757T1036 832H1100Q1100 763 1066 700T968 603T836 568Q767 568 591 643T363 718Q311 718 263
699T189 643T163 568Z" />
</font>
</defs>
</svg>
